<svg width="20" height="20" viewBox="0 0 20 20" fill="none" xmlns="http://www.w3.org/2000/svg">
<g clip-path="url(#clip0_232_52988)">
<path fill-rule="evenodd" clip-rule="evenodd" d="M2.70801 5C2.70801 4.65482 2.98783 4.375 3.33301 4.375H9.16634C9.51152 4.375 9.79134 4.65482 9.79134 5C9.79134 5.34518 9.51152 5.625 9.16634 5.625H3.33301C2.98783 5.625 2.70801 5.34518 2.70801 5Z" fill="#6F6867"/>
<path fill-rule="evenodd" clip-rule="evenodd" d="M2.70801 10C2.70801 9.65482 2.98783 9.375 3.33301 9.375H9.16634C9.51152 9.375 9.79134 9.65482 9.79134 10C9.79134 10.3452 9.51152 10.625 9.16634 10.625H3.33301C2.98783 10.625 2.70801 10.3452 2.70801 10Z" fill="#6F6867"/>
<path fill-rule="evenodd" clip-rule="evenodd" d="M2.70801 15C2.70801 14.6548 2.98783 14.375 3.33301 14.375H10.833C11.1782 14.375 11.458 14.6548 11.458 15C11.458 15.3452 11.1782 15.625 10.833 15.625H3.33301C2.98783 15.625 2.70801 15.3452 2.70801 15Z" fill="#6F6867"/>
<path fill-rule="evenodd" clip-rule="evenodd" d="M14.5577 4.55806C14.8018 4.31398 15.1975 4.31398 15.4416 4.55806L17.9416 7.05806C18.1857 7.30214 18.1857 7.69786 17.9416 7.94194C17.6975 8.18602 17.3018 8.18602 17.0577 7.94194L14.9997 5.88388L12.9416 7.94194C12.6975 8.18602 12.3018 8.18602 12.0577 7.94194C11.8137 7.69786 11.8137 7.30214 12.0577 7.05806L14.5577 4.55806Z" fill="#6F6867"/>
<path fill-rule="evenodd" clip-rule="evenodd" d="M14.9997 4.375C15.3449 4.375 15.6247 4.65482 15.6247 5V15C15.6247 15.3452 15.3449 15.625 14.9997 15.625C14.6545 15.625 14.3747 15.3452 14.3747 15V5C14.3747 4.65482 14.6545 4.375 14.9997 4.375Z" fill="#6F6867"/>
</g>
<defs>
<clipPath id="clip0_232_52988">
<rect width="20" height="20" fill="white"/>
</clipPath>
</defs>
</svg>
