<svg width="20" height="20" viewBox="0 0 20 20" fill="none" xmlns="http://www.w3.org/2000/svg">
<g clip-path="url(#clip0_232_57572)">
<path fill-rule="evenodd" clip-rule="evenodd" d="M2.70898 4.5C2.70898 4.15482 2.98881 3.875 3.33398 3.875H10.834C11.1792 3.875 11.459 4.15482 11.459 4.5C11.459 4.84518 11.1792 5.125 10.834 5.125H3.33398C2.98881 5.125 2.70898 4.84518 2.70898 4.5Z" fill="#6F6867"/>
<path fill-rule="evenodd" clip-rule="evenodd" d="M2.70898 9.5C2.70898 9.15482 2.98881 8.875 3.33398 8.875H9.16732C9.5125 8.875 9.79232 9.15482 9.79232 9.5C9.79232 9.84518 9.5125 10.125 9.16732 10.125H3.33398C2.98881 10.125 2.70898 9.84518 2.70898 9.5Z" fill="#6F6867"/>
<path fill-rule="evenodd" clip-rule="evenodd" d="M2.70898 14.5C2.70898 14.1548 2.98881 13.875 3.33398 13.875H9.16732C9.5125 13.875 9.79232 14.1548 9.79232 14.5C9.79232 14.8452 9.5125 15.125 9.16732 15.125H3.33398C2.98881 15.125 2.70898 14.8452 2.70898 14.5Z" fill="#6F6867"/>
<path fill-rule="evenodd" clip-rule="evenodd" d="M12.0587 11.5581C12.3028 11.314 12.6985 11.314 12.9426 11.5581L15.0007 13.6161L17.0587 11.5581C17.3028 11.314 17.6985 11.314 17.9426 11.5581C18.1867 11.8021 18.1867 12.1979 17.9426 12.4419L15.4426 14.9419C15.1985 15.186 14.8028 15.186 14.5587 14.9419L12.0587 12.4419C11.8146 12.1979 11.8146 11.8021 12.0587 11.5581Z" fill="#6F6867"/>
<path fill-rule="evenodd" clip-rule="evenodd" d="M15.0007 3.875C15.3458 3.875 15.6257 4.15482 15.6257 4.5V14.5C15.6257 14.8452 15.3458 15.125 15.0007 15.125C14.6555 15.125 14.3757 14.8452 14.3757 14.5V4.5C14.3757 4.15482 14.6555 3.875 15.0007 3.875Z" fill="#6F6867"/>
</g>
<defs>
<clipPath id="clip0_232_57572">
<rect width="20" height="20" fill="white"/>
</clipPath>
</defs>
</svg>
